HIERARCHY
ROOT Hips
{
	OFFSET 0.00000 0.00000 0.00000
	CHANNELS 6 Xposition Yposition Zposition Zrotation Yrotation Xrotation 
	JOINT LHipJoint
	{
		OFFSET 0 0 0
		CHANNELS 3 Zrotation Yrotation Xrotation
		JOINT LeftUpLeg
		{
			OFFSET 1.75344 -1.53157 0.77399
			CHANNELS 3 Zrotation Yrotation Xrotation
			JOINT LeftLeg
			{
				OFFSET 2.25415 -6.19323 0.00000
				CHANNELS 3 Zrotation Yrotation Xrotation
				JOINT LeftFoot
				{
					OFFSET 2.30342 -6.32861 0.00000
					CHANNELS 3 Zrotation Yrotation Xrotation
					JOINT LeftToeBase
					{
						OFFSET 0.10958 -0.30108 1.49206
						CHANNELS 3 Zrotation Yrotation Xrotation
						End Site
						{
							OFFSET 0.00000 -0.00000 0.77783
						}
					}
				}
			}
		}
	}
	JOINT RHipJoint
	{
		OFFSET 0 0 0
		CHANNELS 3 Zrotation Yrotation Xrotation
		JOINT RightUpLeg
		{
			OFFSET -1.81912 -1.53156 0.77399
			CHANNELS 3 Zrotation Yrotation Xrotation
			JOINT RightLeg
			{
				OFFSET -2.22882 -6.12365 0.00000
				CHANNELS 3 Zrotation Yrotation Xrotation
				JOINT RightFoot
				{
					OFFSET -2.21943 -6.09785 0.00000
					CHANNELS 3 Zrotation Yrotation Xrotation
					JOINT RightToeBase
					{
						OFFSET -0.18931 -0.52012 1.59379
						CHANNELS 3 Zrotation Yrotation Xrotation
						End Site
						{
							OFFSET -0.00000 -0.00000 0.84686
						}
					}
				}
			}
		}
	}
	JOINT LowerBack
	{
		OFFSET 0 0 0
		CHANNELS 3 Zrotation Yrotation Xrotation
		JOINT Spine
		{
			OFFSET -0.00200 1.66634 -0.14248
			CHANNELS 3 Zrotation Yrotation Xrotation
			JOINT Spine1
			{
				OFFSET -0.00875 1.64542 0.09514
				CHANNELS 3 Zrotation Yrotation Xrotation
				JOINT Neck
				{
					OFFSET 0 0 0
					CHANNELS 3 Zrotation Yrotation Xrotation
					JOINT Neck1
					{
						OFFSET 0.02257 1.59605 0.00839
						CHANNELS 3 Zrotation Yrotation Xrotation
						JOINT Head
						{
							OFFSET -0.10214 1.57530 -0.23335
							CHANNELS 3 Zrotation Yrotation Xrotation
							End Site
							{
								OFFSET -0.03588 1.60717 -0.08062
							}
						}
					}
				}
				JOINT LeftShoulder
				{
					OFFSET 0 0 0
					CHANNELS 3 Zrotation Yrotation Xrotation
					JOINT LeftArm
					{
						OFFSET 2.54983 1.10186 0.40078
						CHANNELS 3 Zrotation Yrotation Xrotation
						JOINT LeftForeArm
						{
							OFFSET 4.28840 -0.00000 0.00000
							CHANNELS 3 Zrotation Yrotation Xrotation
							JOINT LeftHand
							{
								OFFSET 3.06552 -0.00000 -0.00000
								CHANNELS 3 Zrotation Yrotation Xrotation
								JOINT LeftFingerBase
								{
									OFFSET 0 0 0
									CHANNELS 3 Zrotation Yrotation Xrotation
									JOINT LeftHandIndex1
									{
										OFFSET 0.75304 -0.00000 0.00000
										CHANNELS 3 Zrotation Yrotation Xrotation
										End Site
										{
											OFFSET 0.60712 -0.00000 0.00000
										}
									}
								}
								JOINT LThumb
								{
									OFFSET 0 0 0
									CHANNELS 3 Zrotation Yrotation Xrotation
									End Site
									{
										OFFSET 0.61639 -0.00000 0.61639
									}
								}
							}
						}
					}
				}
				JOINT RightShoulder
				{
					OFFSET 0 0 0
					CHANNELS 3 Zrotation Yrotation Xrotation
					JOINT RightArm
					{
						OFFSET -2.60909 1.35448 0.21802
						CHANNELS 3 Zrotation Yrotation Xrotation
						JOINT RightForeArm
						{
							OFFSET -4.52172 -0.00000 -0.00000
							CHANNELS 3 Zrotation Yrotation Xrotation
							JOINT RightHand
							{
								OFFSET -2.89140 -0.00000 0.00000
								CHANNELS 3 Zrotation Yrotation Xrotation
								JOINT RightFingerBase
								{
									OFFSET 0 0 0
									CHANNELS 3 Zrotation Yrotation Xrotation
									JOINT RightHandIndex1
									{
										OFFSET -0.68054 -0.00000 0.00000
										CHANNELS 3 Zrotation Yrotation Xrotation
										End Site
										{
											OFFSET -0.54867 -0.00000 0.00000
										}
									}
								}
								JOINT RThumb
								{
									OFFSET 0 0 0
									CHANNELS 3 Zrotation Yrotation Xrotation
									End Site
									{
										OFFSET -0.55705 -0.00000 0.55705
									}
								}
							}
						}
					}
				}
			}
		}
	}
}
MOTION
Frames: 7
Frame Time: 0.0571429
0.00 0.00 0.00 0 0 0 0 0 0 -21 0 0 0 0 0 0 0 0 0 0 0 0 0 0 21 0 0 0 0 0 0 0 0 0 0 0 0 0 0 0 0 0 0 0 0 0 0 -16 0 0 21 0 0 11 0 0 0 -8 0 0 0 0 0 0 0 0 0 0 0 0 0 0 0 0 0 0 0 0 8 0 0 0 0 0 0 0 0 0 0 0 0 0 0 0 0 0
0.00 0.00 0.00 -182.0270 -0.7649 -179.0070 0.0000 0.0000 0.0000 -33.1409 -17.9706 0.6134 1.7829 8.3984 23.9309 2.0440 2.7260 -28.1019 0.0066 -0.5250 -1.4427 0.0000 0.0000 0.0000 16.7136 11.9618 -13.1719 -6.0566 -14.4829 45.2083 -0.7068 -15.0192 -27.4953 -0.1650 -2.6170 7.2141 -1.6815 2.3964 4.5567 -0.9565 3.0540 -0.0675 -0.2491 1.5272 -2.6576 -7.9564 -3.5905 0.3665 8.3706 -4.7404 -5.2882 4.2355 -2.4346 -1.3501 -0.0000 -0.0000 0.0000 -85.0624 6.8200 44.7842 21.0401 -31.8751 -6.0711 -0.0000 -0.0000 12.3220 -1.2338 -36.7042 0.7375 -7.1250 0.0000 -0.0000 -18.4922 -5.0910 21.1495 -0.0000 -0.0000 0.0000 85.5496 -6.0647 43.5811 -18.6927 29.0351 -4.8808 0.0000 0.0000 17.1946 -11.8466 -52.7070 9.4739 7.1250 -0.0000 -0.0000 65.7686 -75.5810 -51.5916
0.00 0.00 0.00 -181.1580 0.1781 -176.1210 0.0000 0.0000 0.0000 -34.5104 -17.9783 12.6575 0.5552 4.7731 13.2626 1.9070 9.3631 -30.8608 0.2272 -3.0679 -8.4677 0.0000 0.0000 0.0000 10.8754 36.9879 -22.4024 -1.3779 -7.4280 20.9896 0.8784 -27.0591 -32.9881 -0.1780 -2.7176 7.4936 -2.7412 1.2543 3.8870 -0.6443 1.5403 -0.4373 0.7784 0.8098 -2.6836 -7.9912 -3.5995 0.1867 10.7020 -4.7222 -10.9130 4.6836 -2.6949 -2.7833 0.0000 -0.0000 0.0000 -84.9054 8.8875 42.7438 20.6197 -31.3818 -5.8507 -0.0000 -0.0000 13.8783 4.6631 -38.1225 -2.8827 -7.1250 0.0000 -0.0000 -15.5295 -7.0131 17.9434 0.0000 -0.0000 0.0000 85.1669 -6.2261 40.2852 -17.2614 27.2011 -4.2061 0.0000 0.0000 13.3058 -12.6330 -53.8527 10.2587 7.1250 -0.0000 -0.0000 69.9120 -76.1971 -56.0723
0.00 0.00 0.00 -179.9550 -3.5336 -175.8040 0.0000 0.0000 0.0000 -29.0708 -11.8538 20.0223 0.5239 4.6386 12.8805 0.5444 1.4809 -14.5522 0.8775 -5.9720 -16.7031 0.0000 0.0000 0.0000 21.2987 25.9118 -16.5408 -2.0611 -8.9923 25.7712 0.9119 -18.8809 -16.7098 -0.2199 -3.0189 8.3315 -3.3499 -0.0440 3.4218 -0.0830 -0.2139 -0.6945 1.8055 -0.0582 -2.6224 -8.8086 -3.8030 -1.2116 12.2393 -4.9249 -10.6886 5.2545 -2.8276 -2.3906 0.0000 -0.0000 0.0000 -82.2852 6.6207 48.7889 20.0785 -30.7368 -5.5714 -0.0000 -0.0000 14.0201 0.4585 -36.6918 -0.2740 -7.1250 0.0000 -0.0000 -17.6230 -5.2171 20.0885 0.0000 -0.0000 0.0000 85.1920 -7.0982 36.4045 -20.0912 30.7521 -5.5779 0.0000 0.0000 11.6332 -6.3149 -54.8331 5.1693 7.1250 -0.0000 -0.0000 75.6115 -74.0541 -59.0354
0.00 0.00 0.00 -177.5210 -6.1403 -176.7580 0.0000 0.0000 0.0000 -20.9451 -5.3164 9.9370 2.6802 10.1585 29.4914 -0.0655 -5.8783 -1.8402 0.0222 -0.9616 -2.6431 0.0000 0.0000 0.0000 27.2245 21.1509 -10.4836 -1.5047 -7.7475 21.9499 0.9028 -19.2770 -17.8595 -0.2045 -2.9120 8.0338 -1.1287 0.4699 3.3343 0.4292 0.5886 -0.7790 1.0408 0.3149 -2.6854 -9.2301 -5.0321 -0.7664 13.0450 -6.5443 -8.3539 5.5013 -3.5497 -1.5551 -0.0000 0.0000 0.0000 -82.4861 2.9992 48.9446 20.4413 -31.1704 -5.7580 -0.0000 -0.0000 13.0365 -1.4064 -36.8353 0.8433 -7.1250 0.0000 -0.0000 -18.5830 -5.2024 21.2984 -0.0000 0.0000 0.0000 84.0200 -7.7790 35.4286 -18.7216 29.0712 -4.8948 0.0000 0.0000 14.4462 -8.9170 -52.6414 7.1088 7.1250 -0.0000 -0.0000 66.9393 -74.4527 -51.4171
0.00 0.00 0.00 -175.3870 -8.6698 -178.2340 0.0000 0.0000 0.0000 -15.7323 -5.1113 1.4518 6.4407 14.8422 46.7256 -0.1340 -7.1594 5.8709 0.5911 -4.9222 -13.6868 0.0000 0.0000 0.0000 31.6148 17.9998 -5.2896 -1.0646 -6.5597 18.4172 0.9627 -20.1911 -19.1843 -0.3183 -3.6265 10.0282 0.7145 0.9848 3.4367 0.9819 1.3558 -0.5193 0.5329 0.6678 -2.4666 -9.6417 -6.2587 0.6591 13.9597 -8.2715 -7.0634 5.8276 -4.4057 -1.1546 0.0000 0.0000 0.0000 -84.7159 -0.7173 46.3859 20.1831 -30.8623 -5.6250 -0.0000 -0.0000 13.4611 1.9521 -37.1702 -1.1797 -7.1250 0.0000 -0.0000 -16.8712 -5.8113 19.3110 0.0000 0.0000 0.0000 82.8315 -7.7889 36.5446 -17.1805 27.0951 -4.1692 0.0000 0.0000 16.9767 -7.6319 -53.3847 6.1387 7.1250 -0.0000 -0.0000 70.1020 -74.1967 -54.0234
0.00 0.00 0.00 -172.8170 -13.2420 -180.0120 0.0000 0.0000 0.0000 -11.6807 -11.2652 -9.3788 12.0421 18.4084 66.1222 -0.1733 -7.7935 5.5869 1.2184 -7.0014 -19.7196 0.0000 0.0000 0.0000 36.4455 16.2966 -0.5526 -0.8224 -5.7861 16.1651 1.4725 -24.0925 -22.1879 -0.7137 -5.3991 15.0505 2.8587 1.0448 3.9561 1.8961 1.5026 0.1143 0.2611 0.7038 -2.0769 -11.0587 -7.6207 1.9406 15.3996 -10.2196 -6.4962 6.4780 -5.3959 -0.8062 -0.0000 -0.0000 0.0000 -88.8859 -4.3858 42.4237 21.4504 -32.3503 -6.2892 -0.0000 -0.0000 12.4378 5.8823 -38.4688 -3.6672 -7.1250 0.0000 -0.0000 -14.9291 -7.4929 17.3100 -0.0000 -0.0000 0.0000 81.0944 -6.2996 37.5579 -15.7710 25.2091 -3.5479 0.0000 0.0000 22.3907 -7.9427 -53.5563 6.4039 7.1250 -0.0000 -0.0000 70.5601 -74.3582 -54.6298
